<svg xmlns="http://www.w3.org/2000/svg" viewBox="0 0 505 233.85"><defs><style>.cls-1{fill:#3d24cd;}.cls-2{fill:none;stroke:#3d24cd;stroke-linecap:round;stroke-miterlimit:10;stroke-width:13px;}</style></defs><g id="Layer_2" data-name="Layer 2"><g id="Layer_1-2" data-name="Layer 1"><path class="cls-1" d="M132.16,159.67a42.55,42.55,0,0,0,1.69-12.18c0-11.46-2.29-22.08-20.83-41.25C97.81,90.41,89.69,75.83,89.69,57.29,89.69,29.58,112.4,0,151.77,0c32.91,0,49.16,22.5,49.16,47.29,0,22.76-20.09,43.87-38.54,44.37-7.33.2-19-2.74-22.16-10.69-2-5-.21-10.64,0-11.29a16.66,16.66,0,0,1,6.28-8.79c1.5-1,3.09-1.5,6.27-2.51,5.1-1.61,6.34-1.28,8.57-2.13,4.48-1.71,9.17-6.67,9.17-11.46,0-7.5-6-14.79-19.38-14.79-17.91,0-29.79,12.92-30.41,30-.42,14.37,5.41,23.74,17.08,35.41,13.54,13.33,27.91,28.75,27.91,56.45,0,1.72-.06,3.42-.18,5.09m-36,9.25a35.81,35.81,0,0,0,2.63-6.53M81.44,180.89a30.37,30.37,0,0,0,7.44,2.74M50.2,198.07c-7.45-9.34-11.54-21.43-11.54-35.17,0-29.16,23.54-50.41,48.33-50.41,11.55,0,20.13,4,24.85,10.68,1.12,1.61,5.08,7,4.11,13.9a15.21,15.21,0,0,1-4.57,9.15c-4.35,4-10,3.83-12.55,3.77-3.08-.08-3.06-.73-7.53-1.26-4.92-.58-9-1.06-12.43.42-5.06,2.19-8.54,8.53-8.54,14,0,8.11,4.4,14.2,11.11,17.78"/><path class="cls-1" d="M170.73,155.58c1.89-6.78,7.7-13.53,15.17-24.08,19-26.88,26.17-61.61,32.13-90.67,0,0,2.11-10.25,11.3-27.6a17.72,17.72,0,0,1,3.76-5c4.8-4.39,12.38-6.8,19.27-4.62A12.49,12.49,0,0,1,258.19,7c3.49,3.83,3,9.16,2.51,13.8a24.64,24.64,0,0,1-5,13.16c-.3.37-.53.63-.61.72-14.77,17.29-18.93,40.15-16.45,41.67,1.33.82,5-4.07,13.75-11.67C260.09,58,269.68,53,280.51,53c7.19,0,12.43,2.27,16,5.73,5.12,5,5.67,11.83,5.89,14.9,1,14.25-7.82,22.06-24.08,53.83-1.66,3.24-3,5.89-3.77,7.53-.41,3.35-.83,6.69-1.25,10v5c0,3,0,9.51-2.51,13.8-5,8.68-19.73,7.76-20.68,7.68-3.14-.23-9.15-.67-13.28-5.28-2.49-2.79-4-6.69-4-11.8,0-11.66,7.92-21.25,15.84-32.91,9.16-13.54,13.12-21.46,13.12-27.29,0-4.37-2.29-6.87-6.67-6.87-7.7,0-17.49,7.7-25.83,18.54-14.37,19-20,40.83-22.49,52.7-.84,4.06-1.57,7.29-3.73,9.5"/><path class="cls-1" d="M338.52,140.23c0,6.67-7.08,12.71-14.58,17.92-8.12,5.41-16.45,9.58-24.79,9.58-9.37,0-17.29-5.42-17.29-17.08,0-9.58,5.84-21,12.71-32.71.55-.94,5.82-11.82,16.46-33.54,0,0,1.58-3.24,4.89-9.69,5.48-10.71,6.71-12.6,7.53-13.8,3.62-5.32,7-10.08,12.54-11.29a17,17,0,0,1,4.83-.21c3,.14,8.65.36,11.51,3.91a10.3,10.3,0,0,1,2,6.71c0,6-7.09,15.21-18.34,33.54-7.29,11.87-15.2,26.25-15.2,34.37C320.82,140.44,338.52,129.82,338.52,140.23Z"/><path class="cls-1" d="M321.25,185.82a39.32,39.32,0,0,1,.68-4.19m0,0c2.33-10.46,9.15-20.48,21.17-40.6,0,0,18.72-31.34,24.31-62.55a11.36,11.36,0,0,0,0-3.77c-.67-3.24-2.8-4.53-3.77-6.27-2.54-4.59,3-12.32,5-15.06,1.72-2.38,9.19-12.72,20.27-13,1.77,0,6.38-.07,9.16,2.93,1.49,1.6,2.3,4,2.3,7.27,0,4.38-1.46,10.83,1.87,10.83,5.63,0,17.92-21,37.08-21,16,0,22.91,13.54,22.91,30.83,0,22.7-16.24,51.45-34,68.74-12.71,12.5-26.87,19.79-37.5,19.79-14.58,0-16.45-14-20.62-14-5.17,0-7.35,11.86-9.92,25.77M429.48,86.4c0-6.66-3.54-10.62-8.75-10.62-10.21,0-22.29,14.16-29,24.79-6.25,10-9.59,18.54-9.59,24.16,0,6,3.13,8.33,7.92,8.33,17.37.05,39.45-29.94,39.45-46.61Z"/><path class="cls-2" d="M360,172.75a163.79,163.79,0,0,1,34.34-2c14,.66,67.83,5.06,104.15,45.18"/><path class="cls-2" d="M322.81,181.84c12.64-3.79,24.7-7.05,37.2-9.09"/><path class="cls-2" d="M6.5,227.35c71.3-41.85,102.65-62.68,146.91-69.18,10.36-1.53,29.89-3.49,46.43,7.52,10.64,7.09,19.11,18.93,16.31,23.85-3.83,6.74-25.67-5.2-37.75,5.94-4.44,4.1-7.76,11.49-5.54,16,6.07,12.39,52.64,1.31,70.9-3.14,31.44-7.67,37.59-13.81,66.68-22.76,4.21-1.29,8.32-2.55,12.37-3.76"/><path class="cls-1" d="M364.78,22.12,348,38.9,329.68,20.58c-3.51-4.83-3.85-10.93-1-15,3.54-5,11.45-6.14,17.77-1.8Z"/><path class="cls-1" d="M331.5,21.84l16.69,16.68L366.5,20.21c3.52-4.83,3.87-10.91,1-14.94-3.52-5-11.4-6.1-17.72-1.75Z"/></g></g></svg>